<svg id="Layer_1" data-name="Layer 1" xmlns="http://www.w3.org/2000/svg" width="32" height="32" viewBox="0 0 32 32"><title>logo-32</title><rect x="4" y="14" width="24" height="8" fill="#fed779"/><rect x="12" y="10" width="8" height="8" fill="#fed779"/><rect x="2" y="10" width="2" height="2" fill="#fec46d"/><rect x="6" y="14" width="2" height="2" fill="#fec46d"/><rect x="8" y="14" width="2" height="2" fill="#fec46d"/><rect x="10" y="12" width="2" height="2" fill="#fec46d"/><rect x="12" y="10" width="2" height="2" fill="#fec46d"/><rect x="14" y="8" width="2" height="2" fill="#fec46d"/><rect x="2" y="12" width="2" height="2" fill="#fec46d"/><rect x="2" y="14" width="2" height="2" fill="#fec46d"/><rect x="2" y="16" width="2" height="2" fill="#fec46d"/><rect x="2" y="18" width="2" height="2" fill="#fec46d"/><rect x="2" y="20" width="2" height="2" fill="#fec46d"/><rect x="28" y="10" width="2" height="2" fill="#fec46d"/><rect x="14" y="10" width="2" height="2" fill="#fcfbe6"/><rect x="12" y="12" width="2" height="2" fill="#fcfbe6"/><rect x="10" y="14" width="2" height="2" fill="#ffcb48"/><rect x="8" y="16" width="2" height="2" fill="#ffcb48"/><rect x="22" y="16" width="2" height="2" fill="#ffcb48"/><rect x="4" y="20" width="24" height="2" fill="#ffcb48"/><rect x="26" y="18" width="2" height="2" fill="#ffcb48"/><rect x="20" y="14" width="2" height="2" fill="#fcfbe6"/><rect x="18" y="16" width="2" height="2" fill="#fcfbe6"/><rect x="4" y="14" width="2" height="2" fill="#fcfbe6"/><rect x="4" y="16" width="2" height="2" fill="#fcfbe6"/><rect x="26" y="12" width="2" height="2" fill="#fec46d"/><rect x="24" y="14" width="2" height="2" fill="#fec46d"/><rect x="22" y="14" width="2" height="2" fill="#fec46d"/><rect x="4" y="12" width="2" height="2" fill="#faae5f"/><rect x="4" y="22" width="2" height="2" fill="#faae5f"/><rect x="6" y="22" width="2" height="2" fill="#faae5f"/><rect x="16" y="22" width="2" height="2" fill="#faae5f"/><rect x="28" y="18" width="2" height="2" fill="#faae5f"/><rect x="18" y="22" width="2" height="2" fill="#faae5f"/><rect x="28" y="20" width="2" height="2" fill="#faae5f"/><rect x="28" y="14" width="2" height="2" fill="#faae5f"/><rect x="28" y="12" width="2" height="2" fill="#faae5f"/><rect x="20" y="12" width="2" height="2" fill="#faae5f"/><rect x="18" y="10" width="2" height="2" fill="#faae5f"/><rect x="16" y="8" width="2" height="2" fill="#faae5f"/><rect x="28" y="16" width="2" height="2" fill="#faae5f"/><rect x="2" y="22" width="2" height="2" fill="#f89a57"/><rect x="8" y="22" width="2" height="2" fill="#f89a57"/><rect x="10" y="22" width="2" height="2" fill="#f89a57"/><rect x="12" y="22" width="2" height="2" fill="#f89a57"/><rect x="14" y="22" width="2" height="2" fill="#f89a57"/><rect x="20" y="22" width="2" height="2" fill="#f89a57"/><rect x="22" y="22" width="2" height="2" fill="#f89a57"/><rect x="24" y="22" width="2" height="2" fill="#f89a57"/><rect x="28" y="22" width="2" height="2" fill="#f89a57"/><rect x="26" y="22" width="2" height="2" fill="#f89a57"/></svg>