<svg id="Layer_1" data-name="Layer 1" xmlns="http://www.w3.org/2000/svg" width="16" height="16" viewBox="0 0 16 16"><title>logo-16</title><rect x="2" y="7" width="12" height="4" fill="#fed779"/><rect x="6" y="5" width="4" height="4" fill="#fed779"/><rect x="1" y="5" width="1" height="1" fill="#fec46d"/><rect x="3" y="7" width="1" height="1" fill="#fec46d"/><rect x="4" y="7" width="1" height="1" fill="#fec46d"/><rect x="5" y="6" width="1" height="1" fill="#fec46d"/><rect x="6" y="5" width="1" height="1" fill="#fec46d"/><rect x="7" y="4" width="1" height="1" fill="#fec46d"/><rect x="1" y="6" width="1" height="1" fill="#fec46d"/><rect x="1" y="7" width="1" height="1" fill="#fec46d"/><rect x="1" y="8" width="1" height="1" fill="#fec46d"/><rect x="1" y="9" width="1" height="1" fill="#fec46d"/><rect x="1" y="10" width="1" height="1" fill="#fec46d"/><rect x="14" y="5" width="1" height="1" fill="#fec46d"/><rect x="7" y="5" width="1" height="1" fill="#fcfbe6"/><rect x="6" y="6" width="1" height="1" fill="#fcfbe6"/><rect x="5" y="7" width="1" height="1" fill="#ffcb48"/><rect x="4" y="8" width="1" height="1" fill="#ffcb48"/><rect x="11" y="8" width="1" height="1" fill="#ffcb48"/><rect x="2" y="10" width="12" height="1" fill="#ffcb48"/><rect x="13" y="9" width="1" height="1" fill="#ffcb48"/><rect x="10" y="7" width="1" height="1" fill="#fcfbe6"/><rect x="9" y="8" width="1" height="1" fill="#fcfbe6"/><rect x="2" y="7" width="1" height="1" fill="#fcfbe6"/><rect x="2" y="8" width="1" height="1" fill="#fcfbe6"/><rect x="13" y="6" width="1" height="1" fill="#fec46d"/><rect x="12" y="7" width="1" height="1" fill="#fec46d"/><rect x="11" y="7" width="1" height="1" fill="#fec46d"/><rect x="2" y="6" width="1" height="1" fill="#faae5f"/><rect x="2" y="11" width="1" height="1" fill="#faae5f"/><rect x="3" y="11" width="1" height="1" fill="#faae5f"/><rect x="8" y="11" width="1" height="1" fill="#faae5f"/><rect x="14" y="9" width="1" height="1" fill="#faae5f"/><rect x="9" y="11" width="1" height="1" fill="#faae5f"/><rect x="14" y="10" width="1" height="1" fill="#faae5f"/><rect x="14" y="7" width="1" height="1" fill="#faae5f"/><rect x="14" y="6" width="1" height="1" fill="#faae5f"/><rect x="10" y="6" width="1" height="1" fill="#faae5f"/><rect x="9" y="5" width="1" height="1" fill="#faae5f"/><rect x="8" y="4" width="1" height="1" fill="#faae5f"/><rect x="14" y="8" width="1" height="1" fill="#faae5f"/><rect x="1" y="11" width="1" height="1" fill="#f89a57"/><rect x="4" y="11" width="1" height="1" fill="#f89a57"/><rect x="5" y="11" width="1" height="1" fill="#f89a57"/><rect x="6" y="11" width="1" height="1" fill="#f89a57"/><rect x="7" y="11" width="1" height="1" fill="#f89a57"/><rect x="10" y="11" width="1" height="1" fill="#f89a57"/><rect x="11" y="11" width="1" height="1" fill="#f89a57"/><rect x="12" y="11" width="1" height="1" fill="#f89a57"/><rect x="14" y="11" width="1" height="1" fill="#f89a57"/><rect x="13" y="11" width="1" height="1" fill="#f89a57"/></svg>